<?xml version="1.0" encoding="utf-8"?>
<!-- Generator: Adobe Illustrator 23.0.1, SVG Export Plug-In . SVG Version: 6.00 Build 0)  -->
<svg version="1.1" id="Шар_1" xmlns="http://www.w3.org/2000/svg" xmlns:xlink="http://www.w3.org/1999/xlink" x="0px" y="0px"
	 viewBox="0 0 520 897" style="enable-background:new 0 0 520 897;" xml:space="preserve">
<style type="text/css">
	.st0{fill:#F7931A;fill-opacity:5.000000e-02;}
</style>
<path class="st0" d="M390.4,231.7c-29.3-52.7-85.6-49.6-148.9-27.5l-33.2-76.5L161,148.8l32.2,74.4c-12.4,5.6-25,11.5-37.6,17.4
	l-32.5-74.9L76,186.8l33.1,76.4C99,268,89,272.7,79.2,277l-0.2-0.2l-65.2,29.1l21.5,49.8c0,0,34.6-16.3,34.3-15.4
	c19.1-8.6,30.1-0.4,36,8.2l37.7,87.1c1.7-0.7,3.4-1.4,5.1-1.9c-1.6,0.7-3.3,1.4-5.1,2.3l52.9,122c1.7,6.3,2.3,17.3-11.1,23.4
	c0.8,0.3-34.4,15.3-34.4,15.3l14.9,59.7l61.5-27.4c11.5-5.1,22.8-9.9,33.9-14.8l33.5,77.3l47.2-21.1l-33.2-76.5
	c13.1-5.5,25.7-11,37.9-16.5l33,76.2l47.3-21.1l-33.4-77.2c77.5-40,124.6-84.6,99.7-161.2c-20.1-61.7-59.8-75.4-109.5-65.9
	C405.2,302.1,411.9,270.2,390.4,231.7z M395.9,426.6c25.1,57.8-78.3,96.1-110.4,110.4l-44.4-102.5
	C273.3,420.3,369.9,366.3,395.9,426.6z M311.3,291.9c22.8,52.6-63.7,83.9-90.4,95.8l-40.3-93C207.3,282.8,287.5,237,311.3,291.9z"/>
</svg>
